<svg width="208" height="190" viewBox="0 0 208 190" fill="none" xmlns="http://www.w3.org/2000/svg">
    <path d="M34 38.375C34 35.7708 34.8464 34.0781 36.5391 33.2969C38.362 32.5156 40.3151 32.125 42.3984 32.125C42.7891 32.125 43.5052 32.1901 44.5469 32.3203C45.7188 32.4505 46.4349 32.5156 46.6953 32.5156C47.0859 36.5521 47.4766 41.4349 47.8672 47.1641C48.2578 52.763 48.7135 58.8828 49.2344 65.5234C49.7552 72.0339 50.4062 78.8047 51.1875 85.8359C51.9688 92.8672 53.0755 99.7682 54.5078 106.539C55.9401 113.18 57.6979 119.56 59.7812 125.68C61.8646 131.669 64.4036 136.878 67.3984 141.305C68.0495 142.477 68.6354 143.388 69.1562 144.039C69.8073 144.56 70.3932 145.016 70.9141 145.406C71.5651 145.667 72.2812 145.862 73.0625 145.992C73.8438 145.992 74.8203 145.992 75.9922 145.992C81.3307 145.992 86.4089 145.081 91.2266 143.258C96.1745 141.435 101.057 139.417 105.875 137.203C110.693 134.99 115.576 132.971 120.523 131.148C125.471 129.326 130.68 128.414 136.148 128.414C137.32 128.414 138.818 128.414 140.641 128.414C142.464 128.284 144.156 128.349 145.719 128.609C147.281 128.87 148.648 129.521 149.82 130.562C150.992 131.604 151.578 133.167 151.578 135.25C151.578 137.203 149.82 139.352 146.305 141.695C142.789 143.909 138.297 146.188 132.828 148.531C127.359 150.745 121.37 152.958 114.859 155.172C108.479 157.385 102.294 159.339 96.3047 161.031C90.4453 162.724 85.237 164.091 80.6797 165.133C76.1224 166.044 73.1276 166.5 71.6953 166.5C67.0078 166.5 62.8411 164.938 59.1953 161.812C55.6797 158.557 52.5547 154.26 49.8203 148.922C47.2161 143.453 45.0026 137.268 43.1797 130.367C41.3568 123.336 39.8594 116.044 38.6875 108.492C37.5156 100.94 36.6042 93.4531 35.9531 86.0312C35.3021 78.6094 34.8464 71.7083 34.5859 65.3281C34.3255 58.9479 34.1302 53.349 34 48.5312C34 43.7135 34 40.3281 34 38.375Z" fill="white"/>
    <path d="M95 38.5H140V83.5H95V38.5Z" fill="white"/>
</svg>
